D:\Documents\paper\Opensim\Pipline\Result\dingzhejin\30DJ0001\original_data\dingzhejin_30DJ0001_grf.mot
version=1
nRows=30
nColumns=19
inDegrees=yes
endheader
time	ground_force_vx	ground_force_vy	ground_force_vz	ground_force_px	ground_force_py	ground_force_pz	1_ground_force_vx	1_ground_force_vy	1_ground_force_vz	1_ground_force_px	1_ground_force_py	1_ground_force_pz	ground_torque_x	ground_torque_y	ground_torque_z	1_ground_torque_x	1_ground_torque_y	1_ground_torque_z
1.428500e+01	-0.126829	-0.562885	0.559186	0.300000	0.000000	0.200000	-0.346511	-0.478797	-0.044426	0.300000	0.000000	0.610000	-117749009029.375534	0.225582	-373746909491.904785	4339.977946	0.029228	-13384.095896	
1.428600e+01	-0.111312	-0.502580	0.577970	0.300000	0.000000	0.200000	-0.331413	-0.445415	-0.020858	0.300000	0.000000	0.610000	-65564699414.409027	0.226636	-208108789873.448242	2436.502279	0.029393	-7513.950758	
1.428700e+01	-0.091153	-0.441930	0.586110	0.300000	0.000000	0.200000	-0.310689	-0.399526	-0.008332	0.300000	0.000000	0.610000	-36256456687.113533	0.227474	-115081551408.684937	1356.686754	0.029910	-4183.898231	
1.428800e+01	-0.071234	-0.389372	0.582030	0.300000	0.000000	0.200000	-0.289199	-0.348354	-0.009497	0.300000	0.000000	0.610000	-19931774234.559135	0.228186	-63265407346.217255	750.230690	0.030460	-2313.643054	
1.428900e+01	-0.056943	-0.353972	0.567314	0.300000	0.000000	0.200000	-0.272411	-0.300996	-0.024125	0.300000	0.000000	0.610000	-10901927769.982859	0.228699	-34603788559.431236	412.434883	0.030671	-1271.911590	
1.429000e+01	-0.051210	-0.342181	0.545620	0.300000	0.000000	0.200000	-0.264110	-0.266638	-0.048397	0.300000	0.000000	0.610000	-5936643026.778632	0.228848	-18843487535.947304	225.586288	0.030465	-695.687558	
1.429100e+01	-0.053958	-0.355314	0.521164	0.300000	0.000000	0.200000	-0.265208	-0.250286	-0.076288	0.300000	0.000000	0.610000	-3220260263.861185	0.228657	-10221422084.982866	122.842969	0.030000	-378.836527	
1.429200e+01	-0.063288	-0.389655	0.497782	0.300000	0.000000	0.200000	-0.273704	-0.251630	-0.102204	0.300000	0.000000	0.610000	-1740787724.069444	0.228354	-5525431061.505500	66.634680	0.029492	-205.495285	
1.429300e+01	-0.075822	-0.437028	0.478984	0.300000	0.000000	0.200000	-0.286032	-0.268104	-0.121753	0.300000	0.000000	0.610000	-938137999.771486	0.228124	-2977742071.731903	36.020948	0.029174	-111.085323	
1.429400e+01	-0.087680	-0.486427	0.467456	0.300000	0.000000	0.200000	-0.299036	-0.296644	-0.131344	0.300000	0.000000	0.610000	-504185341.179400	0.227984	-1600333749.135098	19.412257	0.029156	-59.865633	
1.429500e+01	-0.096509	-0.527822	0.464288	0.300000	0.000000	0.200000	-0.310501	-0.332649	-0.129196	0.300000	0.000000	0.610000	-270291783.631823	0.227848	-857932645.261128	10.432767	0.029347	-32.173703	
1.429600e+01	-0.101631	-0.554688	0.469052	0.300000	0.000000	0.200000	-0.318424	-0.370286	-0.116763	0.300000	0.000000	0.610000	-144575581.929768	0.227651	-458897084.397239	5.592965	0.029621	-17.248195	
1.429700e+01	-0.102950	-0.564151	0.479853	0.300000	0.000000	0.200000	-0.321328	-0.404479	-0.098091	0.300000	0.000000	0.610000	-77172667.056340	0.227415	-244953618.270871	2.991605	0.029934	-9.225837	
1.429800e+01	-0.100726	-0.557803	0.493730	0.300000	0.000000	0.200000	-0.319096	-0.431751	-0.077672	0.300000	0.000000	0.610000	-41116337.467579	0.227200	-130507289.911036	1.596882	0.030267	-4.924638	
1.429900e+01	-0.095530	-0.542105	0.507944	0.300000	0.000000	0.200000	-0.312968	-0.449598	-0.058848	0.300000	0.000000	0.610000	-21868263.857658	0.227092	-69412015.439673	0.850792	0.030553	-2.623767	
1.430000e+01	-0.088028	-0.525188	0.520800	0.300000	0.000000	0.200000	-0.304965	-0.456086	-0.043256	0.300000	0.000000	0.610000	-11612399.137504	0.227184	-36858894.399238	0.452505	0.030657	-1.395485	
1.430100e+01	-0.079264	-0.511811	0.531152	0.300000	0.000000	0.200000	-0.297169	-0.450796	-0.031546	0.300000	0.000000	0.610000	-6157288.748256	0.227501	-19543838.708111	0.240287	0.030482	-0.741025	
1.430200e+01	-0.070808	-0.501639	0.537718	0.300000	0.000000	0.200000	-0.291212	-0.435487	-0.024442	0.300000	0.000000	0.610000	-3260344.355774	0.228007	-10348652.926206	0.127409	0.030109	-0.392917	
1.430300e+01	-0.064192	-0.492360	0.539569	0.300000	0.000000	0.200000	-0.287814	-0.413193	-0.022534	0.300000	0.000000	0.610000	-1724191.092490	0.228626	-5472751.724228	0.067464	0.029717	-0.208053	
1.430400e+01	-0.060486	-0.483227	0.536787	0.300000	0.000000	0.200000	-0.286779	-0.387737	-0.025905	0.300000	0.000000	0.610000	-910736.323703	0.229242	-2890766.462934	0.035678	0.029342	-0.110026	
1.430500e+01	-0.060276	-0.476152	0.530136	0.300000	0.000000	0.200000	-0.288056	-0.363797	-0.034140	0.300000	0.000000	0.610000	-480528.278116	0.229800	-1525243.909479	0.018845	0.028873	-0.058117	
1.430600e+01	-0.063548	-0.475537	0.520658	0.300000	0.000000	0.200000	-0.292165	-0.345733	-0.045689	0.300000	0.000000	0.610000	-253276.422127	0.230280	-803924.218110	0.009943	0.028283	-0.030664	
1.430700e+01	-0.069712	-0.485780	0.509876	0.300000	0.000000	0.200000	-0.299167	-0.336285	-0.057822	0.300000	0.000000	0.610000	-133366.813615	0.230585	-423319.353836	0.005241	0.027686	-0.016162	
1.430800e+01	-0.077826	-0.506615	0.499839	0.300000	0.000000	0.200000	-0.308066	-0.336174	-0.067981	0.300000	0.000000	0.610000	-70162.199021	0.230628	-222701.704782	0.002760	0.027244	-0.008511	
1.430900e+01	-0.086580	-0.532092	0.492459	0.300000	0.000000	0.200000	-0.317058	-0.343882	-0.074898	0.300000	0.000000	0.610000	-36879.415494	0.230487	-117058.883794	0.001452	0.027077	-0.004477	
1.431000e+01	-0.094261	-0.554793	0.489048	0.300000	0.000000	0.200000	-0.323851	-0.356237	-0.078405	0.300000	0.000000	0.610000	-19369.185549	0.230370	-61479.695651	0.000763	0.027182	-0.002353	
1.431100e+01	-0.098940	-0.569387	0.490445	0.300000	0.000000	0.200000	-0.326492	-0.369934	-0.078740	0.300000	0.000000	0.610000	-10164.933143	0.230403	-32264.495290	0.000401	0.027468	-0.001236	
1.431200e+01	-0.098938	-0.573295	0.496820	0.300000	0.000000	0.200000	-0.324013	-0.382420	-0.076250	0.300000	0.000000	0.610000	-5330.664234	0.230491	-16920.051381	0.000210	0.027877	-0.000649	
1.431300e+01	-0.093694	-0.567007	0.507027	0.300000	0.000000	0.200000	-0.316423	-0.391688	-0.071144	0.300000	0.000000	0.610000	-2793.561118	0.230454	-8867.037123	0.000110	0.028363	-0.000340	
1.431400e+01	-0.084476	-0.553935	0.518612	0.300000	0.000000	0.200000	-0.305021	-0.396355	-0.063743	0.300000	0.000000	0.610000	-1463.019929	0.230288	-4643.768821	0.000058	0.028811	-0.000178	
